<svg id="aede1c1a-9d3d-4931-8ff2-6bcfa9d8d318" data-name="Capa 1" xmlns="http://www.w3.org/2000/svg" viewBox="0 0 204.52 243.15"><defs><style>.edd81063-1208-42a1-8cd6-8c6eeca10574{fill:#070307;}.f4c9a046-671f-4918-86a6-0e951e3600cb{fill:#0a061c;}.bd357f8e-4da2-4c07-af89-0d360183d706{fill:#381e60;}.e56fd5ee-ef3e-468c-b8d1-e2c7e6f113ae{fill:#0d0624;}.f0f038d4-788d-4583-a837-3202c75d72ff{fill:#290530;}.f28a4001-d167-4004-8b3e-f28aa51cf401{fill:#a1306e;}.fae9db48-ba07-4f6d-b759-34fe65724ba5{fill:#370b3f;}.be3a6163-b60c-46a4-907d-4503862b5fe1{fill:#6f7dad;}.ab80c54f-ba6c-479a-884c-814a02e1140a{fill:#823b78;}.bd1d5a03-86df-4f89-8c44-b80edad048cb{fill:#4f1d5e;}.a173536d-20cc-4cac-98c1-f3b2f455c46d{fill:#66175d;}.f4ccfdf1-8955-449c-b3bd-db3104e4be46{fill:#4c0f4b;}.a2f978be-c9ee-440a-9d52-726a3fa7dd43{fill:#765a94;}.f26cc889-5d42-4b98-acd5-1b70ed85592d{fill:#841e6a;}</style></defs><title>resized_logo</title><path class="edd81063-1208-42a1-8cd6-8c6eeca10574" d="M370.13,492.24c-.08,2.34-.15,4.69-.22,7,1.63,6.6-2.87,10.88-6,15.7l0,0c-4.47,1-9.29,3.6-13.34,2.72-9.24-2-18.05-4.16-27.22,0-1.4.63-3.64-.19-5.35-.75a35.44,35.44,0,0,0-14.48-1.88c-17.38,1.28-34.9.66-52.36,1.15-5,.15-6.32-1.73-6.22-6.35.18-8.32,0-16.65-.3-25-.05-1.27-1.58-2.49-2.42-3.74a62,62,0,0,1-8.24.61c-6.21-.31-13.14,2.51-18.09-3.83,0-11.81.1-23.62-.07-35.44,0-3.42.93-4.72,4.5-4.63a112.21,112.21,0,0,0,11.69-.83l12.71,1,39.31,0,4.52-.84c-1.1-1.34-2.16-2.73-3.33-4-.54-.59-1.72-.82-1.94-1.44-1.21-3.56-2.21-7.19-3.29-10.8l1.07,1,9.9,13,4,1.93L299,438.1l-3.9,4.07-1.53-.65L294,444q.14,11,.26,22.09c.47,2.79-2.75,7.39,3.78,7.2,3.68-.1,7.23.24,5.89-5.24,0-5.3-.13-10.6.14-15.88.18-3.54-.78-5.67-4.61-5.75L307,445l1.37,3.94.6-4,1.08-.23h1.87l4,3.11L315,449c-3.93,1.32-5.55,6.2-4,12.08-1.09,1.24-2.78,2.34-3.13,3.76a20.75,20.75,0,0,0-.2,7.62c.06.37,3.68,1,5,.24,1.51-.85,2.27-3,3.36-4.63,4.67.15,10.12-2.13,12.82,4.13l8,.67c-.31-2-.61-3.94-.92-5.91-.37-1.32-.75-2.64-1.12-4l-1.91-5q-1-3.5-2-7L328,446c4.94-5.21,11-7.1,18.05-6.18l2.93,1.24c2.54,4.64,4.14,4.86,7.09,1l5.86-.18,8-1.95c-.22.77-.8,1.68-.57,2.29a7.86,7.86,0,0,0,2,2.52c.12.12,1.19-.35,1.18-.49a8.62,8.62,0,0,0-.64-3.14c-.3-.58-1.29-.8-2-1.18,0-1,0-1.95,0-2.92l1.19-.37-1.24-.68c.87-.93,1.74-1.85,2.62-2.77l4.43-2.27-.93,4.95c-.45,3.09.06,3.54,3.41,3,9-1.53,9.26-1.36,12.09,7,.73,2.15,1.68,4.24,2.53,6.35a1.44,1.44,0,0,0,.56.75l.52,3.1c1.73,4.34,3.71,8.59,5.08,13,1,3.19,1.13,6.63,1.65,10-1.73,1-3.41,2.75-5.22,2.9-7.14.63-14.31.82-21.48,1-5,.15-6.42,2-5.24,7A16.56,16.56,0,0,1,370.13,492.24ZM262.75,461l.2,6c-.31,7.92-.31,7.94,7.59,8.1a33,33,0,0,0,6.9-.18c8.35-1.63,12.86-4,13-13l.3-5.82-.8-6c-.91-4.67-4.15-7.16-8.45-7.91-4.52-.79-9.18-.68-13.75-1.27-5.17-.66-6.51,1.64-5.38,6.23l0,6.85Zm-13.63,36.1,0,6c.43,2.58,1,7.42,1.27,7.4,6.92-.5,13.82-1.49,20.72-2.4,6.25-3.49,6.34-7.46.3-11.21a8.52,8.52,0,0,1-1.58-1.78L272,490c2.4-6.6.9-9.56-5.56-10.79a73.46,73.46,0,0,0-7.4-1c-10.28-.93-10.53-.65-9.79,9.84l-.09,7.93Zm39.53,6.73.15-2.67c3-4.24,3.25.64,4.71,1.47,1.54,2.28-1.88,6.91,3.51,7.36,8.87.46,8.87.46,6.26-6.1l-3.39-5.77L300,495c1-3.71,3.16-7.58,2.67-11.08-.3-2.2-4.31-5-7.06-5.55-14.67-3.05-17-.92-16.63,13.64,0,.33.09.65.13,1l0,7.14,1.13,3.92c-1.24,5,.68,7.1,5.81,6.12.63-.12,1.27-.18,1.9-.26l.78-.91Zm67.63-4.85-3.27,7c-2.25-1.28-4.42-2.74-6.77-3.79-1.28-.57-2.86-.45-4.3-.63.25,1.49,0,3.41.85,4.4,2.68,3.16,6.26,3.77,10.17,2.4,2.55-.72,6.12-.69,7.39-2.38s.53-5.23.66-7.95c-2.71-5.38-8.18-5-12.9-6.15l.22-7.36c2.85.3,5.7.58,8.55.9.48.06.95.48,1.4.43,1.07-.12,2.12-.42,3.17-.64a12.2,12.2,0,0,0-1.26-2.5c-3.62-4.35-11.15-5.54-15.2-1.78a16.23,16.23,0,0,0-4.39,8.27c-.17.83,4.09,2.57,6.32,3.9Zm-113.17-53c-.64-5.34-4.6-5.87-8.37-4.77-1.35.4-2.11,3.91-2.52,6.11-.35,1.88.19,3.92.34,5.89l.11,6.92c-.19,3.47-.42,6.94-.56,10.41-.12,3-.75,5.9,4.25,5.66,4.27-.21,5-2.07,4.73-5.62-.25-2.8-.23-5.63-.33-8.45l.29-4,4.68,3.35,4.13,8.78c1.16,4.38,3.33,7.94,8.11,4.48,1.57-1.13,1.14-5,1.62-7.66,0-2.33-.09-4.65-.13-7s-.3-4.73-.44-7.1c0-2.64-.13-5.28.07-7.91.24-3.23-1.06-4.24-4.27-4.3-3.51-.07-4.16,1.51-4,4.49s-.14,5.87-.23,8.81l-.42,2.27L248,456q-1.14-2.46-2.26-4.92ZM308,495.05q1.41,5.67,2.81,11.34c.94,1.08,1.7,2.46,2.87,3.17a15.3,15.3,0,0,0,16.4.21c2.1-1.26,2.78-4.89,4.11-7.44L337,500l.78-2c-.19-2.36-.39-4.72-.58-7.08-1-8.05-4.53-11.46-13.6-13.19a13.11,13.11,0,0,0-13.71,6.24Zm51-23.91,7.8,1.6.38-7.64c-.12-2-.23-4-.35-5.92-.25-4.26-.42-8.52-.83-12.76-.07-.67-1.72-1.82-1.82-1.75-3,2.41-9.49,1.82-7.41,8.62.21.66-.63,1.64-1,2.47a11.7,11.7,0,0,1-1.87-1.85c-1.67-2.63-3.23-5.33-4.84-8L346,444l-2.91-1.11-4.62.34q.35,9.82.67,19.66c.31,2.44.12,5.12,1.12,7.24.65,1.37,3,2.08,4.74,2.64.26.09,1.85-2.19,1.88-3.4.09-3.42-.3-6.87-.51-10.3l.62-2.16,6.37,5.28,4.45,7.11C358.22,469.9,358.61,470.52,359,471.14Zm30.31-21.35c-.43-1.59-1-3.16-1.28-4.77-1.22-6.12-6-3.71-9.55-3.88-4.14-.19-3.25,3.26-3.58,5.73q-1.89,5.6-3.79,11.18c-1.23,3.75-4.18,7.42-.63,11.44.81.93,1.49,2.4,2.46,2.63a4.08,4.08,0,0,0,3.19-1.42c.91-1.06,1.26-2.6,1.86-3.94l11.06.22a9.31,9.31,0,0,1,.39,1.44c.42,4,3.22,4.25,6.06,3.39.52-.16.27-3.28.13-5a10.17,10.17,0,0,0-1.07-2.75L392.86,459ZM218.18,474.05l.48.93c11,.78,11,.78,10.22-10.11,0-.33-.09-.65-.13-1l.28-18.95c1.26-7.07-4.11-4.63-7.23-4.79-4.89-.26-3.84,3.19-3.3,6.13l.17,13.72Zm150.34-24.73,1.3,2.79c.66-1.39,1.42-2.75,1.94-4.2.13-.35-.48-1-.75-1.48Z" transform="translate(-201.8 -276.13)"/><path class="f4c9a046-671f-4918-86a6-0e951e3600cb" d="M280.06,421c1.08,3.61,2.08,7.24,3.29,10.8.22.62,1.4.85,1.94,1.44,1.17,1.27,2.23,2.66,3.33,4l-4.52.84c-1.64-.68-3.27-1.89-4.93-1.93-9.71-.22-19.44-.17-29.16-.21-2.49-7.86-4.54-15.89-7.65-23.49-1.49-3.62-3-8.53-8.89-8.13-4.45.31-8.12-.82-9.14-6.1-.16-.83-2-1.62-3.13-1.88-.51-.11-2,1.33-1.89,1.74a15.2,15.2,0,0,0,2,3.74c.93,1.45,1.95,2.86,2.94,4.28a51.4,51.4,0,0,1-6.41,1.33,15.06,15.06,0,0,1-5.39-.48c-1.23-.36-3.13-1.44-3.18-2.3-.31-5.09-3.88-4.53-7.19-4.6v-9c2.41,2.54,4.77,5.14,7.27,7.6a6.08,6.08,0,0,0,2.7,1.44c2-2.52,5.09-5,5.45-7.87.62-4.89,2.8-5.17,6.5-4.17l4.75,2.78,1-2.47c-1.6-.15-3.19-.32-4.79-.45a4.22,4.22,0,0,0-1,.14c-1-1.32-1.81-2.92-3.08-3.9-1.93-1.47-4.45-2.22-6.27-3.8-3.26-2.84-6-3.14-8.83.43-1.17,1.49-2.49,2.85-3.74,4.27-.07-10.39-.18-20.79-.13-31.18,0-1,1-2,1.5-3a19.83,19.83,0,0,0,14,10.95c14.45,3,29.13,4.89,43.73,7.1.52.07,1.24-1.18,1.86-1.81v-1L275,371c1.62.71,3.28,1.36,4.86,2.14,1.78.89,3.48,1.9,5.22,2.86-3.71-2.12-5.83-.47-7.17,3-1.2,3.81-3.43,7.65-3.37,11.44.1,5.5-.93,12,5.44,15.53,2.55,1.68,5,4.55,7.69,4.79,7.49.66,15.07.18,22.62.26,1.83,0,5.07-2.3,4.65,2.28-.31,3.24,1.76,7.84-4.58,7.72-9.66-.16-18.95-1.79-27.36-6.71-2.81-1.65-3.08-.59-3,1.81Z" transform="translate(-201.8 -276.13)"/><path class="bd357f8e-4da2-4c07-af89-0d360183d706" d="M256.69,294.89c.09-.82.15-1.65.3-2.46.73-3.79-2-9,4.2-10.59,4-1,8-2.79,12.12-3,6.55-.41,13.16.16,19.74.32,23.8,7.16,32.46,8.37,36.94,4.88-1.94,0-3.66.28-5.22-.09-1.33-.31-2.49-1.36-3.72-2.09,1.07-1.22,1.94-2.78,3.27-3.58s3.08-.8,4.65-1.15c2.41-.34,4.88-1.17,7.23-.92,4.74.52,9.53,1.3,11.14,7.09,1.74,6.28,3.72,12.49,5.6,18.73-.51,1.29-1.64,2.69-1.42,3.84,1.33,7.06,3,14.07,4.5,21.1L347,328c-3.75-3.86-5.22-11.9-13.65-7.21-1,.53-2.88-.42-4.25-.94-7.51-2.88-14.85-6.37-23.2-5.9l2.12-2.86c3.67-3.4,7.79-6.43,10.86-10.3,2.5-3.15,1.7-6.53-2.85-7.86h0l-4-2h0l-2-2,0,.05-1-.94c-5.44.5-2.48,2.69-.91,4.56,5.15,6.12,5.06,7.06-.12,13-2.28,2.61-4.12,5.61-6.16,8.43a31.22,31.22,0,0,1-3.58-1.32c-5.5-2.84-10.84-6-16.5-8.45-1.73-.74-4.47.18-6.48,1-5.26,2.09-10.38,4.54-15.56,6.85C262.06,305.78,259.42,300.33,256.69,294.89Zm74.82-6c2.38,6.36,4.25,11.45,6.21,16.5a7.46,7.46,0,0,0,1.51,1.81,11,11,0,0,0,.13-2.48c-1.21-7.17-4.92-14.54,2.06-21,.52-.48,0-2.08,0-3.16-.93.08-2.24-.21-2.73.29C336.21,283.33,334,286,331.51,288.86Z" transform="translate(-201.8 -276.13)"/><path class="e56fd5ee-ef3e-468c-b8d1-e2c7e6f113ae" d="M202.08,400c3.31.07,6.88-.49,7.19,4.6,0,.86,1.95,1.94,3.18,2.3a15.06,15.06,0,0,0,5.39.48,51.4,51.4,0,0,0,6.41-1.33c-1-1.42-2-2.83-2.94-4.28a15.2,15.2,0,0,1-2-3.74c-.11-.41,1.38-1.85,1.89-1.74,1.17.26,3,1,3.13,1.88,1,5.28,4.69,6.41,9.14,6.1,5.91-.4,7.4,4.51,8.89,8.13,3.11,7.6,5.16,15.63,7.65,23.49l-5.22,2.16-12.71-1c-4.56-.34-9.12-.58-13.67-1.06-3.63-.39-4.52,1.23-4.46,4.61.16,10.48,0,21,.15,31.45,0,2,1.21,3.94,1.86,5.9,4.95,6.34,11.88,3.52,18.09,3.83a62,62,0,0,0,8.24-.61c.23,3.67.45,7.33.68,11-12.47,0-24.95.12-37.42-.06-1.24,0-3.52-1.8-3.52-2.78C201.91,459.54,202,429.77,202.08,400Z" transform="translate(-201.8 -276.13)"/><path class="e56fd5ee-ef3e-468c-b8d1-e2c7e6f113ae" d="M376,435.88l.93-4.95,0,0c1-1.06,2.65-2,2.92-3.19A90.6,90.6,0,0,0,381,418l-3.15-6.42c-1.42,1.09-2.69,2.56-4.29,3.19a98.17,98.17,0,0,1-12.36,4.07,4.2,4.2,0,0,1-3.62-1.83c-2.21-5.54.15-8.27,6.05-9.12,8.92-1.28,15.82-4.74,15.19-15.18-.41-7-2.49-13.83-3.83-20.74l28.81-15q0,53.52,0,107-2.76-4.06-5.51-8.12c-.57-1.59-1.55-3.15-1.66-4.77-.88-12.81-3.34-15.27-15.65-15.22C379.3,435.93,377.65,435.89,376,435.88Z" transform="translate(-201.8 -276.13)"/><path class="f4c9a046-671f-4918-86a6-0e951e3600cb" d="M203.57,350.4c-.57-1.1-1.61-2.19-1.62-3.3-.13-10.63.05-21.27-.15-31.9-.06-3.13,1.25-3.38,3.8-3.37,15.78,0,31.57-.06,47.35-.11,0,1.44.05,2.88.08,4.31l-5.92,10.91c-1.06,1.22-2.71,2.29-3.08,3.69-1.25,4.75-2.05,9.62-3,14.44L236.09,347c-7,0-14-.39-21,.14C211.23,347.46,207.42,349.27,203.57,350.4Z" transform="translate(-201.8 -276.13)"/><path class="e56fd5ee-ef3e-468c-b8d1-e2c7e6f113ae" d="M356.18,311.85c14.26,0,28.53.15,42.79-.06,3.77-.05,5.08.76,5,4.83-.21,11.09.11,22.2.22,33.3l-2.25.13-2-.1c-.64-.63-1.19-1.67-1.93-1.83q-9.63-2.14-19.33-4c-2.89-.54-5.84-.76-8.76-1.12L364.12,338,359.87,328c-.33-1.57-.63-3.14-1-4.7C358,319.49,357.08,315.67,356.18,311.85Z" transform="translate(-201.8 -276.13)"/><path class="f0f038d4-788d-4583-a837-3202c75d72ff" d="M263,367c-.62.63-1.34,1.88-1.86,1.81-14.6-2.21-29.28-4.11-43.73-7.1a19.83,19.83,0,0,1-14-10.95s.29-.29.29-.29c16.6-1.62,32.63-.55,47,9.28C254.65,362.46,258.9,364.62,263,367Z" transform="translate(-201.8 -276.13)"/><path class="f28a4001-d167-4004-8b3e-f28aa51cf401" d="M243,492.14c-.23-3.67-.45-7.33-.68-11,.84,1.25,2.37,2.47,2.42,3.74.3,8.32.48,16.65.3,25-.1,4.62,1.18,6.5,6.22,6.35,17.46-.49,35,.13,52.36-1.15a35.44,35.44,0,0,1,14.48,1.88c1.71.56,3.95,1.38,5.35.75,9.17-4.17,18-2,27.22,0,4.05.88,8.87-1.71,13.34-2.72-6.82,6.31-14.61,4.25-22.46,2.87-2.62-.46-5.45.36-8.19.5-5.21.28-10.43.7-15.64.65-4.11,0-8.21-1-12.32-1-18.78-.13-37.56-.18-56.34,0-4.23,0-5.34-1.37-5.25-5.52C243.92,505.66,243.28,498.9,243,492.14Z" transform="translate(-201.8 -276.13)"/><path class="e56fd5ee-ef3e-468c-b8d1-e2c7e6f113ae" d="M370.13,492.24a16.56,16.56,0,0,0-.23-2.33c-1.18-5,.25-6.8,5.24-7,7.17-.22,14.34-.41,21.48-1,1.81-.15,3.49-1.89,5.22-2.9l1.94,1.9C404,492.21,404,492.2,393,492.2,385.39,492.2,377.76,492.23,370.13,492.24Z" transform="translate(-201.8 -276.13)"/><path class="e56fd5ee-ef3e-468c-b8d1-e2c7e6f113ae" d="M202.08,385c1.25-1.42,2.57-2.78,3.74-4.27,2.81-3.57,5.57-3.27,8.83-.43,1.82,1.58,4.34,2.33,6.27,3.8,1.27,1,2.07,2.58,3.08,3.9h0c-3.7-1-5.88-.72-6.5,4.17-.36,2.84-3.43,5.35-5.45,7.87a6.08,6.08,0,0,1-2.7-1.44c-2.5-2.46-4.86-5.06-7.27-7.6Z" transform="translate(-201.8 -276.13)"/><path class="f0f038d4-788d-4583-a837-3202c75d72ff" d="M402,350.05l2.25-.13c.75.85,2.27,1.91,2.11,2.5-.46,1.63-1.63,3.06-2.51,4.57L375,372l-2,0h0l-1.1-2-3.82-2.94c8.59-3.44,17.29-6.63,25.7-10.46C396.85,355.2,399.25,352.28,402,350.05Z" transform="translate(-201.8 -276.13)"/><path class="edd81063-1208-42a1-8cd6-8c6eeca10574" d="M263,367c-4.09-2.41-8.34-4.57-12.25-7.25-14.37-9.83-30.4-10.9-47-9.28l-.16-.1c3.84-1.13,7.65-2.94,11.56-3.24,7-.53,14-.14,21-.14-1.62,1.35-2.59,2.63.3,3.63,3.21,1.1,6.39,2.25,9.58,3.38l17,12Z" transform="translate(-201.8 -276.13)"/><path class="fae9db48-ba07-4f6d-b759-34fe65724ba5" d="M329,277.09c-1.57.35-3.34.37-4.65,1.15s-2.2,2.36-3.27,3.58c1.23.73,2.39,1.78,3.72,2.09,1.56.37,3.28.09,5.22.09-4.48,3.49-13.14,2.28-36.94-4.88Z" transform="translate(-201.8 -276.13)"/><path class="be3a6163-b60c-46a4-907d-4503862b5fe1" d="M253,316c0-1.43-.05-2.87-.08-4.31q1.88-8.42,3.74-16.83c2.73,5.44,5.37,10.89,3,17.22l-.81,2.52Z" transform="translate(-201.8 -276.13)"/><path class="ab80c54f-ba6c-479a-884c-814a02e1140a" d="M403.78,480.92l-1.94-1.9c-.52-3.33-.67-6.77-1.65-10-1.37-4.44-3.35-8.69-5.08-13l3.16-.12Q401,460,403.78,464Z" transform="translate(-201.8 -276.13)"/><path class="bd1d5a03-86df-4f89-8c44-b80edad048cb" d="M356.18,311.85c.9,3.82,1.81,7.64,2.7,11.47.36,1.56.66,3.13,1,4.7a5.59,5.59,0,0,0-.82,0l-3-1.08c-1.53-7-3.17-14-4.5-21.1-.22-1.15.91-2.55,1.42-3.84Z" transform="translate(-201.8 -276.13)"/><path class="f28a4001-d167-4004-8b3e-f28aa51cf401" d="M364,515c3.08-4.82,7.58-9.1,6-15.7C372.51,506.41,370.5,511.72,364,515Z" transform="translate(-201.8 -276.13)"/><path class="a173536d-20cc-4cac-98c1-f3b2f455c46d" d="M349,441.06l-2.92-1.24a84.93,84.93,0,0,1-8.42-4.08c-3.54-2.21-6.26-1.26-8.73,1.54-2,2.28-3.54,2.11-6.66,1-3.55-1.23-5.33-6.84-10.24-4.31,1.06-2.25.43-7,5.43-2.81,1.29,1.09,5-.69,7.57-1.15l2.94.18,3.07.71,13-1.85c8-2.87,14.81-9.77,24.46-7.68.7.15,1.65-.88,2.49-1.37.46,2,1.28,4,1.28,6a40.72,40.72,0,0,1-1.1,6.94c-4.65-3.31-12.44-1.08-14.14,4l-2-4a14.73,14.73,0,0,0,1.17-3.14c0-.61-.12-.2-.14.23,0,.2.22.43.34.64a5.17,5.17,0,0,0,.48-1.21c0-.2-.28-.46-.68.34A14.73,14.73,0,0,1,355,433c-.68,2.34-1.35,4.68-2,7Z" transform="translate(-201.8 -276.13)"/><path class="f4ccfdf1-8955-449c-b3bd-db3104e4be46" d="M312,434c4.91-2.53,6.69,3.08,10.24,4.31,3.12,1.08,4.65,1.25,6.66-1,2.47-2.8,5.19-3.75,8.73-1.54a84.93,84.93,0,0,0,8.42,4.08c-7-.92-13.11,1-18.05,6.18-1.37.91-2.8,1.74-4.08,2.76a16.11,16.11,0,0,0-2,2.33L320,449.84l0-1.81a67.25,67.25,0,0,0-4.64-5.82,33.34,33.34,0,0,0-3.42,2.55h-1.87c-1-.93-2-1.89-3-2.76-2-1.66-4-3.26-6.09-4.88,1.73-3.29,4-4.46,7.61-2.51.8.43,2.28-.38,3.45-.62Z" transform="translate(-201.8 -276.13)"/><path class="ab80c54f-ba6c-479a-884c-814a02e1140a" d="M349.08,445.9c1.61,2.68,3.17,5.38,4.84,8a11.7,11.7,0,0,0,1.87,1.85c.36-.83,1.2-1.81,1-2.47-2.08-6.8,4.45-6.21,7.41-8.62.1-.07,1.75,1.08,1.82,1.75.41,4.24.58,8.5.83,12.75L364,459c-5.23-4.52-7.39,1.1-10.61,3.22L347,456.89l-2.34-4.71a41.76,41.76,0,0,0-4.44,4.05c-.48.57-.09,1.89-.09,2.86-.33,1.26-.65,2.52-1,3.78q-.33-9.83-.67-19.66l4.62-.34L346,444Z" transform="translate(-201.8 -276.13)"/><path class="a173536d-20cc-4cac-98c1-f3b2f455c46d" d="M279.12,493c0-.33-.12-.65-.13-1-.38-14.56,2-16.69,16.63-13.64,2.75.57,6.76,3.35,7.06,5.55.49,3.5-1.65,7.37-2.67,11.08l-5.33-3.2c-.39-2.16-.13-4.9-1.37-6.33-1-1.2-3.83-.89-5.85-1.26-.23,2-.51,3.92-.69,5.89a26.41,26.41,0,0,0,.07,3Z" transform="translate(-201.8 -276.13)"/><path class="f4ccfdf1-8955-449c-b3bd-db3104e4be46" d="M325,430c-2.59.46-6.28,2.24-7.57,1.15-5-4.2-4.37.56-5.43,2.81h0c-2.24-.78-4.5-1.49-6.71-2.36-2.36-.92-4.1-1.17-4.4,2.22-.1,1.12-1.21,2.15-1.86,3.21l0,1-3.93-1.23c2.49-2.68.69-5-.75-7.23-3.05-4.63-.54-5.75,3.57-6.09A12.67,12.67,0,0,0,300,423q7.19-.15,14.37-.28c.76,0,1.76-.22,2.24.17C319.48,425.17,322.22,427.63,325,430ZM307,430l-1-1-.44-2.13c-.13.08-.38.21-.37.24.24.65.51,1.29.78,1.93l1,1,.45.2Z" transform="translate(-201.8 -276.13)"/><path class="a2f978be-c9ee-440a-9d52-726a3fa7dd43" d="M290.4,461.88c-.1,9-4.61,11.39-13,13a33,33,0,0,1-6.9.18c-7.9-.16-7.9-.18-7.59-8.1l7.81-2,10.18-1.07Z" transform="translate(-201.8 -276.13)"/><path class="f4ccfdf1-8955-449c-b3bd-db3104e4be46" d="M262.32,447.08c-1.13-4.59.21-6.89,5.38-6.23,4.57.59,9.23.48,13.75,1.27,4.3.75,7.54,3.24,8.45,7.91l-7.07,3c-3.05-3.88-7.15-4.66-11.75-4Z" transform="translate(-201.8 -276.13)"/><path class="be3a6163-b60c-46a4-907d-4503862b5fe1" d="M334.2,502.33c-1.33,2.55-2,6.18-4.11,7.44a15.3,15.3,0,0,1-16.4-.21c-1.17-.71-1.93-2.09-2.87-3.17l5.62-5.56c4.21,4.65,6.18,4.67,12.33.11Z" transform="translate(-201.8 -276.13)"/><path class="a173536d-20cc-4cac-98c1-f3b2f455c46d" d="M309.87,483.94a13.11,13.11,0,0,1,13.71-6.24c9.07,1.73,12.58,5.14,13.59,13.19-2.44,1.77-5.31-4.37-7.58.41-4.41-8.58-7.23-9.21-13.33-3C316.47,483.42,314.1,482.32,309.87,483.94Z" transform="translate(-201.8 -276.13)"/><path class="a2f978be-c9ee-440a-9d52-726a3fa7dd43" d="M299.42,446.39c3.83.08,4.79,2.21,4.61,5.75-.27,5.28-.12,10.58-.14,15.88-2.41-6.38-2.4-6.37-7.81-2.61a7.44,7.44,0,0,1-1.86.65Q294.08,455,294,444l1,.25Z" transform="translate(-201.8 -276.13)"/><path class="a173536d-20cc-4cac-98c1-f3b2f455c46d" d="M249.21,488c-.74-10.49-.49-10.77,9.79-9.84a73.46,73.46,0,0,1,7.4,1c6.46,1.23,8,4.19,5.56,10.79l-5.71-1.93c-1.57-5-5.07-5.8-8.74-2Z" transform="translate(-201.8 -276.13)"/><path class="a2f978be-c9ee-440a-9d52-726a3fa7dd43" d="M229,444.94q-.14,9.48-.28,18.95c-2.64-3.16-5.59-5.53-10.08-3.89l-.18-13.72Z" transform="translate(-201.8 -276.13)"/><path class="f26cc889-5d42-4b98-acd5-1b70ed85592d" d="M266.25,488.05,272,490l-2.1,5.06-3,3.24c-3.2-1.6-6.32-6.86-9.74-.26l-6.2-2-1.76-.09.09-7.93,8.3-2,3,5.56Z" transform="translate(-201.8 -276.13)"/><path class="be3a6163-b60c-46a4-907d-4503862b5fe1" d="M218.67,460c4.49-1.64,7.44.73,10.08,3.89,0,.33.1.65.13,1,.77,10.89.77,10.89-10.21,10.11l-.49-.93Q218.42,467,218.67,460Z" transform="translate(-201.8 -276.13)"/><path class="f26cc889-5d42-4b98-acd5-1b70ed85592d" d="M279.12,493l7.72.06,7.84-1.25L300,495l-.12,3.09c-3.59-.57-5.49,1.25-6.38,4.51-1.46-.83-1.67-5.71-4.71-1.47l-9.65-1Z" transform="translate(-201.8 -276.13)"/><path class="bd1d5a03-86df-4f89-8c44-b80edad048cb" d="M346.92,493.06c-2.23-1.33-6.49-3.07-6.32-3.9a16.23,16.23,0,0,1,4.39-8.27c4.05-3.76,11.58-2.57,15.2,1.78a12.2,12.2,0,0,1,1.26,2.5c-1.05.22-2.1.52-3.17.64-.45.05-.92-.37-1.4-.43-2.85-.32-5.7-.6-8.55-.9-.08,2.45-.15,4.91-.22,7.36C347.72,492.25,347.32,492.65,346.92,493.06Z" transform="translate(-201.8 -276.13)"/><path class="a2f978be-c9ee-440a-9d52-726a3fa7dd43" d="M392.86,459l1.71,5.08L389.06,467,378,466.76l-5.19-2.71c-.77,1.81-1.54,3.63-2.32,5.44-3.55-4-.6-7.69.63-11.44h7.06c0,5.61,2.21,6.62,8.95,4Z" transform="translate(-201.8 -276.13)"/><path class="a2f978be-c9ee-440a-9d52-726a3fa7dd43" d="M240.76,462.09c.1,2.82.08,5.65.33,8.45.3,3.55-.46,5.41-4.73,5.62-5,.24-4.37-2.68-4.25-5.66.14-3.47.37-6.94.55-10.41Z" transform="translate(-201.8 -276.13)"/><path class="a2f978be-c9ee-440a-9d52-726a3fa7dd43" d="M271.14,508c-6.9.91-13.8,1.9-20.72,2.4-.25,0-.84-4.82-1.27-7.4h8.17c2.54,4.31,6.19,2.41,9.63,1.73Z" transform="translate(-201.8 -276.13)"/><path class="fae9db48-ba07-4f6d-b759-34fe65724ba5" d="M300,423a12.67,12.67,0,0,1-2.13.57c-4.11.34-6.62,1.46-3.57,6.09,1.44,2.19,3.24,4.55.75,7.23l-4-1.93c-.66-2-1.85-4-1.9-6-.16-5.43-3.07-7.25-8-7l-1.07-1,0-4.82Z" transform="translate(-201.8 -276.13)"/><path class="a2f978be-c9ee-440a-9d52-726a3fa7dd43" d="M328.83,472.23c-2.7-6.26-8.15-4-12.82-4.13-1.31-2.06-2.61-4.13-3.92-6.2l4.21.76,8.56-.6c.93.41,2.54,1.35,2.69,1.16,2.4-3.13,4.82-1.12,7.23-.19.37,1.32.75,2.64,1.12,4Z" transform="translate(-201.8 -276.13)"/><path class="f28a4001-d167-4004-8b3e-f28aa51cf401" d="M249.86,470.25l-4.13-8.78L248,456l2.09.37,9.33,3.74c.05,2.33.09,4.65.14,7C255.56,465.71,251.65,464.76,249.86,470.25Z" transform="translate(-201.8 -276.13)"/><path class="fae9db48-ba07-4f6d-b759-34fe65724ba5" d="M216,477.92c-.65-2-1.82-3.92-1.86-5.9-.19-10.48,0-21-.15-31.45-.06-3.38.83-5,4.46-4.61,4.55.48,9.11.72,13.67,1.06a112.21,112.21,0,0,1-11.69.83c-3.57-.09-4.55,1.21-4.5,4.63C216.06,454.3,216,466.11,216,477.92Z" transform="translate(-201.8 -276.13)"/><path class="f26cc889-5d42-4b98-acd5-1b70ed85592d" d="M398.27,455.91l-3.16.12c-.17-1-.35-2.07-.52-3.1l-.56-.75c-.85-2.11-1.8-4.2-2.53-6.35-2.83-8.34-3.09-8.51-12.09-7-3.35.57-3.86.12-3.41-3,1.65,0,3.3.05,5,0,12.31-.05,14.77,2.41,15.65,15.22C396.72,452.76,397.7,454.32,398.27,455.91Z" transform="translate(-201.8 -276.13)"/><path class="a173536d-20cc-4cac-98c1-f3b2f455c46d" d="M374.91,446.87c.33-2.47-.56-5.92,3.58-5.73,3.53.17,8.33-2.24,9.55,3.88.32,1.61.85,3.18,1.28,4.77L384,450l-3.87,0Z" transform="translate(-201.8 -276.13)"/><path class="f4ccfdf1-8955-449c-b3bd-db3104e4be46" d="M357,437c1.7-5.12,9.49-7.35,14.14-4l1.33.28c-.88.92-1.75,1.84-2.62,2.77a2.68,2.68,0,0,0-.89.1,2.42,2.42,0,0,0-.38.25,6.58,6.58,0,0,0,.4.67l.46.06.45,0c0,1,0,2,0,2.92h0l-8,1.95Q359.48,439.43,357,437Z" transform="translate(-201.8 -276.13)"/><path class="be3a6163-b60c-46a4-907d-4503862b5fe1" d="M339.16,462.87c.33-1.26.65-2.52,1-3.78l6.25,0c.21,3.43.6,6.88.51,10.3,0,1.21-1.62,3.49-1.88,3.4-1.74-.56-4.09-1.27-4.74-2.64C339.28,468,339.47,465.31,339.16,462.87Z" transform="translate(-201.8 -276.13)"/><path class="fae9db48-ba07-4f6d-b759-34fe65724ba5" d="M372.5,433.2l-1.33-.28a40.72,40.72,0,0,0,1.1-6.94c0-2-.82-4-1.28-6a44.11,44.11,0,0,0,4-3.59c2.88-3.29,3.5-1.13,4,1.54l-2,13,0,0Z" transform="translate(-201.8 -276.13)"/><path class="a173536d-20cc-4cac-98c1-f3b2f455c46d" d="M250.54,454.08c.09-2.94.35-5.88.23-8.81s.54-4.56,4-4.49c3.21.06,4.51,1.07,4.27,4.3-.2,2.63-.06,5.27-.07,7.91Z" transform="translate(-201.8 -276.13)"/><path class="f28a4001-d167-4004-8b3e-f28aa51cf401" d="M329.59,491.3c2.27-4.78,5.14,1.36,7.58-.41q.3,3.54.59,7.08l-.78,2-2.78,2.35-5.43-1.39C329,497.73,329.31,494.51,329.59,491.3Z" transform="translate(-201.8 -276.13)"/><path class="a173536d-20cc-4cac-98c1-f3b2f455c46d" d="M262.32,447.08l8.76,1.94c-.06,2.31-.13,4.63-.19,7l-3.26,1,3.3,1-.17,4-4.8-3.14c-1.22-1.66-2.44-3.33-3.67-5Z" transform="translate(-201.8 -276.13)"/><path class="be3a6163-b60c-46a4-907d-4503862b5fe1" d="M294.22,466.06a7.44,7.44,0,0,0,1.86-.65c5.41-3.76,5.4-3.77,7.81,2.61,1.34,5.48-2.21,5.14-5.89,5.24C291.47,473.45,294.69,468.85,294.22,466.06Z" transform="translate(-201.8 -276.13)"/><path class="a2f978be-c9ee-440a-9d52-726a3fa7dd43" d="M249.86,470.25c1.79-5.49,5.7-4.54,9.73-3.18-.48,2.63,0,6.53-1.62,7.66C253.19,478.19,251,474.63,249.86,470.25Z" transform="translate(-201.8 -276.13)"/><path class="f28a4001-d167-4004-8b3e-f28aa51cf401" d="M271.14,508,267,504.77q-.06-3.25-.13-6.49l3-3.24a8.52,8.52,0,0,0,1.58,1.78C277.48,500.57,277.39,504.54,271.14,508Z" transform="translate(-201.8 -276.13)"/><path class="fae9db48-ba07-4f6d-b759-34fe65724ba5" d="M244.79,438.05l5.22-2.16c9.72,0,19.45,0,29.16.21,1.66,0,3.29,1.25,4.93,1.93Z" transform="translate(-201.8 -276.13)"/><path class="be3a6163-b60c-46a4-907d-4503862b5fe1" d="M364,459l2.85.22c.12,2,.23,3.95.35,5.93q-4.1,3-8.18,6c-.4-.62-.79-1.24-1.18-1.86C357.73,464.55,359.31,460.82,364,459Z" transform="translate(-201.8 -276.13)"/><path class="f26cc889-5d42-4b98-acd5-1b70ed85592d" d="M309.87,483.94c4.23-1.62,6.6-.52,6.39,4.36l-.92,2.7L308,495.05Z" transform="translate(-201.8 -276.13)"/><path class="ab80c54f-ba6c-479a-884c-814a02e1140a" d="M308,495.05l7.33-4.05q.54,4.92,1.1,9.83l-5.62,5.56Q309.41,500.72,308,495.05Z" transform="translate(-201.8 -276.13)"/><path class="be3a6163-b60c-46a4-907d-4503862b5fe1" d="M312.09,461.9c1.31,2.07,2.61,4.14,3.92,6.2-1.09,1.6-1.85,3.78-3.36,4.63-1.29.72-4.91.13-5-.24a20.75,20.75,0,0,1,.2-7.62c.35-1.42,2-2.52,3.13-3.76Z" transform="translate(-201.8 -276.13)"/><path class="f26cc889-5d42-4b98-acd5-1b70ed85592d" d="M248,456l-2.3,5.49-4.68-3.35L236,452l9.79-.95Q246.9,453.52,248,456Z" transform="translate(-201.8 -276.13)"/><path class="f26cc889-5d42-4b98-acd5-1b70ed85592d" d="M312.09,461.9l-1.08-.79c-1.56-5.88.06-10.76,4-12.08l3.09,3-1.79,10.65Z" transform="translate(-201.8 -276.13)"/><path class="bd1d5a03-86df-4f89-8c44-b80edad048cb" d="M232.56,453.17c-.15-2-.69-4-.34-5.89.41-2.2,1.17-5.71,2.52-6.11,3.77-1.1,7.73-.57,8.37,4.77-4.92-.79-8.16.91-9.11,6.07Z" transform="translate(-201.8 -276.13)"/><path class="a2f978be-c9ee-440a-9d52-726a3fa7dd43" d="M293.51,502.59c.89-3.26,2.79-5.08,6.38-4.51l3.39,5.77L297,510C291.63,509.5,295.05,504.87,293.51,502.59Z" transform="translate(-201.8 -276.13)"/><path class="a2f978be-c9ee-440a-9d52-726a3fa7dd43" d="M353,505.94l3.27-7L361,498c-.13,2.72.69,6.15-.66,7.95s-4.84,1.66-7.39,2.38C353,507.53,353,506.74,353,505.94Z" transform="translate(-201.8 -276.13)"/><path class="ab80c54f-ba6c-479a-884c-814a02e1140a" d="M374.91,446.87l5.21,3.15c-.65,2.68-1.29,5.35-1.94,8h-7.06Q373,452.46,374.91,446.87Z" transform="translate(-201.8 -276.13)"/><path class="f26cc889-5d42-4b98-acd5-1b70ed85592d" d="M384,450l5.33-.21,3.54,9.17-5.73,3.12Z" transform="translate(-201.8 -276.13)"/><path class="fae9db48-ba07-4f6d-b759-34fe65724ba5" d="M299.42,446.39,295,444.21c0-.68.07-1.36.11-2l3.9-4.07c0-.34,0-.69,0-1l1.91.06c2,1.62,4.09,3.22,6.09,4.88,1.05.87,2,1.83,3,2.76L309,445l-2,0Z" transform="translate(-201.8 -276.13)"/><path class="f26cc889-5d42-4b98-acd5-1b70ed85592d" d="M330.84,451q1,3.5,2,7l-7.75,1c-.17-.53-.34-1-.52-1.58C323.9,450,324.65,449.24,330.84,451Z" transform="translate(-201.8 -276.13)"/><path class="ab80c54f-ba6c-479a-884c-814a02e1140a" d="M232.56,453.17,234,452h2l5.07,6.11c-.1,1.32-.2,2.65-.29,4l-8.1-2Q232.62,456.63,232.56,453.17Z" transform="translate(-201.8 -276.13)"/><path class="f0f038d4-788d-4583-a837-3202c75d72ff" d="M281.13,422c4.92-.23,7.83,1.59,8,7,.05,2,1.24,4,1.9,6Z" transform="translate(-201.8 -276.13)"/><path class="be3a6163-b60c-46a4-907d-4503862b5fe1" d="M353,505.94c0,.8,0,1.59-.05,2.38-3.91,1.37-7.49.76-10.17-2.4-.85-1-.6-2.91-.85-4.4,1.44.18,3,.06,4.3.63C348.59,503.2,350.76,504.66,353,505.94Z" transform="translate(-201.8 -276.13)"/><path class="bd357f8e-4da2-4c07-af89-0d360183d706" d="M229,444.94l-10.54,1.34c-.53-2.94-1.58-6.39,3.31-6.13C224.92,440.31,230.29,437.87,229,444.94Z" transform="translate(-201.8 -276.13)"/><path class="f26cc889-5d42-4b98-acd5-1b70ed85592d" d="M250.54,454.08,259,453c.14,2.37.29,4.74.43,7.1l-9.33-3.74Z" transform="translate(-201.8 -276.13)"/><path class="be3a6163-b60c-46a4-907d-4503862b5fe1" d="M288,509.9c-.63.08-1.27.14-1.9.26-5.13,1-7-1.07-5.81-6.12l8.37-.25.12,5.2Z" transform="translate(-201.8 -276.13)"/><path class="a173536d-20cc-4cac-98c1-f3b2f455c46d" d="M236,452h-2c.95-5.16,4.19-6.86,9.11-6.07l2.66,5.12Z" transform="translate(-201.8 -276.13)"/><path class="be3a6163-b60c-46a4-907d-4503862b5fe1" d="M389.06,467l5.51-2.94a10.17,10.17,0,0,1,1.07,2.75c.14,1.74.39,4.86-.13,5-2.84.86-5.64.58-6.06-3.39A9.31,9.31,0,0,0,389.06,467Z" transform="translate(-201.8 -276.13)"/><path class="a173536d-20cc-4cac-98c1-f3b2f455c46d" d="M282.83,453l7.07-3q.41,3,.8,6l-7.21,2Z" transform="translate(-201.8 -276.13)"/><path class="ab80c54f-ba6c-479a-884c-814a02e1140a" d="M283.49,458l7.21-2-.3,5.82-9.46,2.06Z" transform="translate(-201.8 -276.13)"/><path class="f26cc889-5d42-4b98-acd5-1b70ed85592d" d="M357,437q2.45,2.48,4.91,4.93l-5.87.18L353,440c.68-2.34,1.35-4.68,2-7h0Z" transform="translate(-201.8 -276.13)"/><path class="ab80c54f-ba6c-479a-884c-814a02e1140a" d="M257.32,503h-8.17l0-6,1.76-1,6.2,2Z" transform="translate(-201.8 -276.13)"/><path class="a2f978be-c9ee-440a-9d52-726a3fa7dd43" d="M364,459c-4.68,1.87-6.26,5.6-6.16,10.33l-4.45-7.11C356.6,460.05,358.76,454.43,364,459Z" transform="translate(-201.8 -276.13)"/><path class="be3a6163-b60c-46a4-907d-4503862b5fe1" d="M370.49,469.49c.78-1.81,1.55-3.63,2.32-5.44l5.19,2.71c-.6,1.34-.95,2.88-1.86,3.94a4.08,4.08,0,0,1-3.19,1.42C372,471.89,371.3,470.42,370.49,469.49Z" transform="translate(-201.8 -276.13)"/><path class="f4c9a046-671f-4918-86a6-0e951e3600cb" d="M359,471.14q4.08-3,8.18-6-.18,3.81-.38,7.64Z" transform="translate(-201.8 -276.13)"/><path class="ab80c54f-ba6c-479a-884c-814a02e1140a" d="M266,458.92l4.8,3.14V465L263,467c-.06-2-.13-4-.2-6Z" transform="translate(-201.8 -276.13)"/><path class="ab80c54f-ba6c-479a-884c-814a02e1140a" d="M361,498l-4.73.95-9.36-5.88c.4-.41.8-.81,1.19-1.22C352.83,493,358.3,492.61,361,498Z" transform="translate(-201.8 -276.13)"/><path class="a2f978be-c9ee-440a-9d52-726a3fa7dd43" d="M346.39,459.05l-6.25,0c0-1-.39-2.29.09-2.86a41.76,41.76,0,0,1,4.44-4.05l2.34,4.71C346.81,457.61,346.6,458.33,346.39,459.05Z" transform="translate(-201.8 -276.13)"/><path class="a2f978be-c9ee-440a-9d52-726a3fa7dd43" d="M288.65,503.79l-8.37.25c-.38-1.31-.75-2.61-1.13-3.91l9.65,1Z" transform="translate(-201.8 -276.13)"/><path class="be3a6163-b60c-46a4-907d-4503862b5fe1" d="M328.83,472.23,335.9,467c.31,2,.61,3.94.92,5.91Z" transform="translate(-201.8 -276.13)"/><path class="f28a4001-d167-4004-8b3e-f28aa51cf401" d="M325.12,459l7.75-1,1.91,5c-2.41-.93-4.83-2.94-7.23.19-.15.19-1.76-.75-2.69-1.16C325,461.05,325,460,325.12,459Z" transform="translate(-201.8 -276.13)"/><path class="a173536d-20cc-4cac-98c1-f3b2f455c46d" d="M330.84,451c-6.19-1.79-6.94-1-6.23,6.41l-2.7-6.35a16.11,16.11,0,0,1,2-2.33c1.28-1,2.71-1.85,4.08-2.76Z" transform="translate(-201.8 -276.13)"/><path class="be3a6163-b60c-46a4-907d-4503862b5fe1" d="M297,510l6.26-6.1C305.89,510.41,305.89,510.41,297,510Z" transform="translate(-201.8 -276.13)"/><path class="fae9db48-ba07-4f6d-b759-34fe65724ba5" d="M311.93,444.76a33.34,33.34,0,0,1,3.42-2.55A67.25,67.25,0,0,1,320,448l-4.1-.16Z" transform="translate(-201.8 -276.13)"/><path class="f4ccfdf1-8955-449c-b3bd-db3104e4be46" d="M353,440l3.1,2.05c-2.95,3.85-4.55,3.63-7.09-1Z" transform="translate(-201.8 -276.13)"/><path class="f4ccfdf1-8955-449c-b3bd-db3104e4be46" d="M266,458.92l-3.21,2c-.16-2.34-.31-4.69-.46-7C263.52,455.59,264.74,457.26,266,458.92Z" transform="translate(-201.8 -276.13)"/><path class="a173536d-20cc-4cac-98c1-f3b2f455c46d" d="M315.89,447.87l4.1.16c0,.6,0,1.21,0,1.81-.63.72-1.26,1.44-1.88,2.17L315,449C315.3,448.64,315.6,448.26,315.89,447.87Z" transform="translate(-201.8 -276.13)"/><path class="f4c9a046-671f-4918-86a6-0e951e3600cb" d="M368.52,449.32l2.49-2.89c.27.5.88,1.13.75,1.48-.52,1.45-1.28,2.81-1.94,4.2Z" transform="translate(-201.8 -276.13)"/><path class="f4c9a046-671f-4918-86a6-0e951e3600cb" d="M369.91,439.94c.69.38,1.68.6,2,1.18a8.62,8.62,0,0,1,.64,3.14c0,.14-1.06.61-1.18.49a7.86,7.86,0,0,1-2-2.52c-.23-.61.35-1.52.57-2.29Z" transform="translate(-201.8 -276.13)"/><path class="f4c9a046-671f-4918-86a6-0e951e3600cb" d="M307,445l2,0-.6,4C307.92,447.65,307.46,446.33,307,445Z" transform="translate(-201.8 -276.13)"/><path class="f4c9a046-671f-4918-86a6-0e951e3600cb" d="M295.08,442.17c0,.68-.07,1.36-.11,2l-1-.24c-.14-.82-.27-1.63-.41-2.45Z" transform="translate(-201.8 -276.13)"/><path class="bd1d5a03-86df-4f89-8c44-b80edad048cb" d="M343.11,442.87l-4.62.34Z" transform="translate(-201.8 -276.13)"/><path class="bd1d5a03-86df-4f89-8c44-b80edad048cb" d="M349.08,445.9,346,444Z" transform="translate(-201.8 -276.13)"/><path class="f4c9a046-671f-4918-86a6-0e951e3600cb" d="M369,436.07a2.68,2.68,0,0,1,.89-.1l1.24.68-1.19.37-.46,0L369,437C369,436.69,369,436.38,369,436.07Z" transform="translate(-201.8 -276.13)"/><path class="a173536d-20cc-4cac-98c1-f3b2f455c46d" d="M250.88,496.06l-1.76,1V496Z" transform="translate(-201.8 -276.13)"/><path class="a173536d-20cc-4cac-98c1-f3b2f455c46d" d="M337,500l.78-2Z" transform="translate(-201.8 -276.13)"/><path class="bd357f8e-4da2-4c07-af89-0d360183d706" d="M218.18,474.05l.49.93C218.5,474.67,218.34,474.36,218.18,474.05Z" transform="translate(-201.8 -276.13)"/><path class="a2f978be-c9ee-440a-9d52-726a3fa7dd43" d="M288,509.9l.78-.91Z" transform="translate(-201.8 -276.13)"/><path class="f4c9a046-671f-4918-86a6-0e951e3600cb" d="M394,452.18l.56.75A1.44,1.44,0,0,1,394,452.18Z" transform="translate(-201.8 -276.13)"/><path class="fae9db48-ba07-4f6d-b759-34fe65724ba5" d="M263,366l-17-12c1.22-.7,2.36-1.72,3.67-2,5.76-1.44,11.57-2.68,17.37-4l30,2.91c.66,8.57-.75,17.54,5,25.1l5.93,1.85L306.13,379,300,378l-3-2c-.08-.62-.08-1.76-.25-1.78-7.23-1.15-14.47-2.19-21.71-3.25Z" transform="translate(-201.8 -276.13)"/><path class="edd81063-1208-42a1-8cd6-8c6eeca10574" d="M300,423l-20-6.85c-.07-2.4.2-3.46,3-1.81,8.41,4.92,17.7,6.55,27.36,6.71,6.34.12,4.27-4.48,4.58-7.72.42-4.58-2.82-2.27-4.65-2.28-7.55-.08-15.13.4-22.62-.26-2.69-.24-5.14-3.11-7.69-4.79l.14-.13c8.68,3.71,17.54,5.72,26.9,2.7l8.88-.75L317.1,409c0,5.77-1.05,11.89,5,15.77l14,3.31,4.16-.63L344,427l0,2.13-13,1.85-3.07-.71L325,430c-2.78-2.41-5.52-4.87-8.39-7.17-.48-.39-1.48-.18-2.24-.17Q307.18,422.82,300,423Z" transform="translate(-201.8 -276.13)"/><path class="fae9db48-ba07-4f6d-b759-34fe65724ba5" d="M278,379c1.34-3.49,3.46-5.14,7.17-3l2.9.17c-7.09,2.57-9.13,7.85-8.07,14.87a27.62,27.62,0,0,1,.05,4l-2.45-.94Z" transform="translate(-201.8 -276.13)"/><path class="edd81063-1208-42a1-8cd6-8c6eeca10574" d="M278,379q-.19,7.53-.4,15.05l2.61,11.79L280,406c-6.37-3.54-5.34-10-5.44-15.53C274.52,386.66,276.75,382.82,278,379Z" transform="translate(-201.8 -276.13)"/><path class="bd357f8e-4da2-4c07-af89-0d360183d706" d="M288,376.16l-2.9-.17c-1.74-1-3.44-2-5.22-2.86-1.58-.78-3.24-1.43-4.86-2.14,7.24,1.06,14.48,2.1,21.71,3.25.17,0,.17,1.16.25,1.78l-6,1.05Z" transform="translate(-201.8 -276.13)"/><path class="e56fd5ee-ef3e-468c-b8d1-e2c7e6f113ae" d="M224,388a4.22,4.22,0,0,1,1-.14c1.6.13,3.19.3,4.79.45l-1,2.47L224,388Z" transform="translate(-201.8 -276.13)"/><path class="bd1d5a03-86df-4f89-8c44-b80edad048cb" d="M258.91,314.63l.81-2.52c5.18-2.31,10.3-4.76,15.56-6.85,2-.81,4.75-1.73,6.48-1,5.66,2.42,11,5.61,16.5,8.45a31.22,31.22,0,0,0,3.58,1.32l4.06-.07c8.35-.47,15.69,3,23.2,5.9,1.37.52,3.3,1.47,4.25.94,8.43-4.69,9.9,3.35,13.65,7.21L331,330.15a88.24,88.24,0,0,1-8.85.74c-15.7-.22-31.4-.58-47.09-.9H264c-8.53,0-8.49,0-6.36-8.39C258.22,319.32,258.5,317,258.91,314.63Z" transform="translate(-201.8 -276.13)"/><path class="f0f038d4-788d-4583-a837-3202c75d72ff" d="M305.9,314l-4.06.07c2-2.82,3.88-5.82,6.16-8.43,5.18-5.93,5.27-6.87.12-13-1.57-1.87-4.53-4.06.91-4.56l1,.94,0,0,2,2h0l4,2h0c3.23,4.73,1.28,8-2.61,11.31-2.18,1.83-3.62,4.54-5.4,6.85Z" transform="translate(-201.8 -276.13)"/><path class="f0f038d4-788d-4583-a837-3202c75d72ff" d="M331.51,288.86c2.48-2.83,4.7-5.53,7.14-8,.49-.5,1.8-.21,2.73-.29,0,1.08.56,2.68,0,3.16-7,6.45-3.27,13.82-2.06,21a11,11,0,0,1-.13,2.48,7.46,7.46,0,0,1-1.51-1.81C335.76,300.31,333.89,295.22,331.51,288.86Z" transform="translate(-201.8 -276.13)"/><path class="f0f038d4-788d-4583-a837-3202c75d72ff" d="M331,330.15,347,328l9-1.09,3,1.08L351,330l-7,1-13,.9Z" transform="translate(-201.8 -276.13)"/><path class="e56fd5ee-ef3e-468c-b8d1-e2c7e6f113ae" d="M308,311.11c1.78-2.31,3.22-5,5.4-6.85,3.89-3.27,5.84-6.58,2.61-11.31,4.55,1.33,5.35,4.71,2.85,7.86C315.81,304.68,311.69,307.71,308,311.11Z" transform="translate(-201.8 -276.13)"/><path class="e56fd5ee-ef3e-468c-b8d1-e2c7e6f113ae" d="M316,293l-4-2Z" transform="translate(-201.8 -276.13)"/><path class="e56fd5ee-ef3e-468c-b8d1-e2c7e6f113ae" d="M312.05,291l-2-2Z" transform="translate(-201.8 -276.13)"/><path class="e56fd5ee-ef3e-468c-b8d1-e2c7e6f113ae" d="M310,289l-1-.94Z" transform="translate(-201.8 -276.13)"/><path class="f4c9a046-671f-4918-86a6-0e951e3600cb" d="M344,429.08l0-2.13a52.53,52.53,0,0,0,6.15-3.91c4.62-3.88,5.63-8.78,3-13.16-2.52-7.84-8.09-11.74-16.11-12.49l-3.14.44-1.91.34-1-.17-7,1.16,3.89-4.43c-.3-.55-.61-1.09-.92-1.64l16.93.07c.05,1.27-.41,3,.23,3.75,3.33,4,3.65-2,5.87-1.92l4.24,7.93c1.14,1,2.44,3,3.39,2.84a128.28,128.28,0,0,0,14.18-3.28c1.07-.3,1.86-1.59,2.78-2.42L371,400l1-2.12.92-1.9c.29-1,.57-1.95.86-2.92,1.05-12.23-2.5-17.59-12.69-19.14l-1-.62L353,370.92l4.91-.79c1.51.63,3.06,1.17,4.51,1.89,3.4,1.68,7.1,3,10,5.36,1.7,1.37,2.09,4.36,3.07,6.62l1-.35L373,372l2,0c1.34,6.91,3.42,13.77,3.83,20.74.63,10.44-6.27,13.9-15.19,15.18-5.9.85-8.26,3.58-6.05,9.12a4.2,4.2,0,0,0,3.62,1.83,98.17,98.17,0,0,0,12.36-4.07c1.6-.63,2.87-2.1,4.29-3.19L381,418l-2,0c-.5-2.67-1.12-4.83-4-1.54a44.11,44.11,0,0,1-4,3.59c-.84.49-1.79,1.52-2.49,1.37C358.85,419.31,352.08,426.21,344,429.08Z" transform="translate(-201.8 -276.13)"/><path class="edd81063-1208-42a1-8cd6-8c6eeca10574" d="M379,418l2,0a90.6,90.6,0,0,1-1.13,9.78C379.6,429,378,429.91,377,431Z" transform="translate(-201.8 -276.13)"/><path class="f0f038d4-788d-4583-a837-3202c75d72ff" d="M267,348c-5.8,1.31-11.61,2.55-17.37,4-1.31.33-2.45,1.35-3.67,2-3.19-1.13-6.37-2.28-9.58-3.38-2.89-1-1.92-2.28-.3-3.63l4.92-2c.91-1.22,2.15-2.33,2.67-3.7,1-2.75,1.68-5.64,2.49-8.47L248,335c0,8.73,0,8.71,8.72,10.1A11.74,11.74,0,0,1,259,346Z" transform="translate(-201.8 -276.13)"/><path class="bd357f8e-4da2-4c07-af89-0d360183d706" d="M248,335l-1.84-2.12c0-.6,0-1.2,0-1.79l.85-1,2.59-1.26-2.47-1a8.61,8.61,0,0,0,0-.88L253,316l5.88-1.4c-.41,2.33-.69,4.69-1.28,7C255.5,330,255.46,330,264,330l-4,2.09Z" transform="translate(-201.8 -276.13)"/><path class="edd81063-1208-42a1-8cd6-8c6eeca10574" d="M246.15,331.1c0,.59,0,1.19,0,1.79-.81,2.83-1.45,5.72-2.49,8.47-.52,1.37-1.76,2.48-2.67,3.7,1-4.81,1.77-9.68,3-14.43.37-1.4,2-2.47,3.08-3.69a8.77,8.77,0,0,1,0,.89c-.05.4-.09.81-.14,1.22Z" transform="translate(-201.8 -276.13)"/><path class="f4ccfdf1-8955-449c-b3bd-db3104e4be46" d="M357.88,370.13l-4.91.79c.45-8.12,6.88-4.39,10-4.91l-4-5c1.6-4.56,5.68-8.78,2-14.09l1-1,8-1.91L400,350l2,.1c-2.7,2.23-5.1,5.15-8.18,6.55-8.41,3.83-17.11,7-25.7,10.46Z" transform="translate(-201.8 -276.13)"/><path class="f4ccfdf1-8955-449c-b3bd-db3104e4be46" d="M351,330l8.05-1.95a5.59,5.59,0,0,1,.82,0l4.25,9.93c-.7,1.67-1.39,3.35-2.09,5l-12,3Q350.5,338,351,330Z" transform="translate(-201.8 -276.13)"/><path class="f4c9a046-671f-4918-86a6-0e951e3600cb" d="M400,350,370,344c0-.34,0-.67,0-1,2.92.36,5.87.58,8.76,1.12q9.69,1.82,19.33,4C398.8,348.28,399.35,349.32,400,350Z" transform="translate(-201.8 -276.13)"/><path class="f0f038d4-788d-4583-a837-3202c75d72ff" d="M370,343c0,.33,0,.66,0,1l-8,1.91.06-3c.7-1.67,1.39-3.35,2.09-5Z" transform="translate(-201.8 -276.13)"/><path class="fae9db48-ba07-4f6d-b759-34fe65724ba5" d="M357.88,370.13l10.19-3.07,3.82,2.94c.37.67.74,1.34,1.1,2h0q1.75,5.82,3.52,11.64l-1,.35c-1-2.26-1.37-5.25-3.07-6.62-2.9-2.33-6.6-3.68-10-5.36C360.94,371.3,359.39,370.76,357.88,370.13Z" transform="translate(-201.8 -276.13)"/><path class="f4c9a046-671f-4918-86a6-0e951e3600cb" d="M373,372c-.36-.68-.73-1.35-1.1-2Z" transform="translate(-201.8 -276.13)"/><path class="f4ccfdf1-8955-449c-b3bd-db3104e4be46" d="M327.94,430.22l3.07.71Z" transform="translate(-201.8 -276.13)"/><path class="f26cc889-5d42-4b98-acd5-1b70ed85592d" d="M356.33,428.72c.24.34.55.6.52.8a5.17,5.17,0,0,1-.48,1.21c-.12-.21-.35-.44-.34-.64A8.57,8.57,0,0,1,356.33,428.72Z" transform="translate(-201.8 -276.13)"/><path class="f26cc889-5d42-4b98-acd5-1b70ed85592d" d="M355,433c.33-.67.67-1.33,1-2l-1,2Z" transform="translate(-201.8 -276.13)"/><path class="edd81063-1208-42a1-8cd6-8c6eeca10574" d="M318.09,452c.62-.73,1.25-1.45,1.88-2.17l1.94,1.25,2.7,6.35c.17.54.34,1.06.51,1.59-.08,1-.17,2-.26,3l-8.56.6Q317.2,457.34,318.09,452Z" transform="translate(-201.8 -276.13)"/><path class="a173536d-20cc-4cac-98c1-f3b2f455c46d" d="M300.94,437.13l-1.91-.06c.65-1.06,1.76-2.09,1.86-3.21.3-3.39,2-3.14,4.4-2.22,2.21.87,4.47,1.58,6.71,2.36-1.17.24-2.65,1.05-3.45.62C305,432.67,302.67,433.84,300.94,437.13Z" transform="translate(-201.8 -276.13)"/><path class="edd81063-1208-42a1-8cd6-8c6eeca10574" d="M294.68,491.79,286.84,493a26.41,26.41,0,0,1-.07-3c.18-2,.46-3.92.69-5.89,2,.37,4.81.06,5.85,1.26C294.55,486.89,294.29,489.63,294.68,491.79Z" transform="translate(-201.8 -276.13)"/><path class="a173536d-20cc-4cac-98c1-f3b2f455c46d" d="M306,429c-.27-.64-.54-1.28-.78-1.93,0,0,.24-.16.37-.24.15.71.29,1.42.44,2.13Z" transform="translate(-201.8 -276.13)"/><path class="a173536d-20cc-4cac-98c1-f3b2f455c46d" d="M307,430l.41.24L307,430Z" transform="translate(-201.8 -276.13)"/><path class="a173536d-20cc-4cac-98c1-f3b2f455c46d" d="M307,430l-1-1,0,0,1,1Z" transform="translate(-201.8 -276.13)"/><path class="edd81063-1208-42a1-8cd6-8c6eeca10574" d="M270.76,465v-2.95c.06-1.35.11-2.7.17-4,0-.69,0-1.37,0-2,.06-2.32.13-4.64.19-7,4.6-.67,8.7.11,11.75,4l.66,5-2.55,5.9Z" transform="translate(-201.8 -276.13)"/><path class="edd81063-1208-42a1-8cd6-8c6eeca10574" d="M316.44,500.83q-.56-4.9-1.1-9.83l.92-2.7c6.1-6.21,8.92-5.58,13.33,3-.28,3.21-.55,6.43-.82,9.64C322.62,505.5,320.65,505.48,316.44,500.83Z" transform="translate(-201.8 -276.13)"/><path class="edd81063-1208-42a1-8cd6-8c6eeca10574" d="M266.25,488.05l-5.78,3.54-3-5.56C261.18,482.25,264.68,483.05,266.25,488.05Z" transform="translate(-201.8 -276.13)"/><path class="edd81063-1208-42a1-8cd6-8c6eeca10574" d="M257.32,503l-.24-5c3.42-6.6,6.54-1.34,9.74.26q.07,3.24.13,6.49C263.51,505.45,259.86,507.35,257.32,503Z" transform="translate(-201.8 -276.13)"/><path class="edd81063-1208-42a1-8cd6-8c6eeca10574" d="M384,450l3.14,12.08c-6.74,2.59-9,1.58-8.95-4,.65-2.68,1.29-5.35,1.94-8Z" transform="translate(-201.8 -276.13)"/><path class="edd81063-1208-42a1-8cd6-8c6eeca10574" d="M369,436.07c0,.31,0,.62,0,.92a6.58,6.58,0,0,1-.4-.67A2.42,2.42,0,0,1,369,436.07Z" transform="translate(-201.8 -276.13)"/><path class="f4ccfdf1-8955-449c-b3bd-db3104e4be46" d="M270.89,456c0,.68,0,1.36,0,2l-3.3-1Z" transform="translate(-201.8 -276.13)"/><path class="a173536d-20cc-4cac-98c1-f3b2f455c46d" d="M300,378l6.13,1a9.88,9.88,0,0,0,2.8.78c15.16-.6,30.31-1.55,45.48-1.71,3.53,0,7.09,2.55,10.64,3.93-1.47-.21-2.93-.51-4.4-.63-5.75-.46-11.5-1.21-17.24-1.18s-11.46,1.14-17.2,1.3c-5.43.15-10.91-.68-16.33-.43-12.41.59-17.68,5.76-18,17-1.32-3.23-3.3-6.38-3.69-9.72-.18-1.52,2.6-3.6,4.34-5.07a38.13,38.13,0,0,1,5.35-3.22Z" transform="translate(-201.8 -276.13)"/><path class="e56fd5ee-ef3e-468c-b8d1-e2c7e6f113ae" d="M362,343l-.06,3-1,1L355,348.77,340,350.11l-20,1L305,351l-8-.08L267,348l-8-2,5-.09,17,.9,16.95,1,42,0,10-1.8Z" transform="translate(-201.8 -276.13)"/><path class="f4ccfdf1-8955-449c-b3bd-db3104e4be46" d="M297,350.9l8,.08c-.08,3.38-.59,6.83-.12,10.14.7,5,2.09,9.86,3.18,14.78l-6,.1C296.28,368.44,297.69,359.47,297,350.9Z" transform="translate(-201.8 -276.13)"/><path class="a2f978be-c9ee-440a-9d52-726a3fa7dd43" d="M365.05,382c-3.55-1.38-7.11-4-10.64-3.93-15.17.16-30.32,1.11-45.48,1.71a9.88,9.88,0,0,1-2.8-.78l1.81-1.18,19.1-2,9-2.67c0,.23,0,.47,0,.71,1.17.72,2.35,2.07,3.52,2.06,4.27,0,8.53-.53,12.79-.84h6.36l3.43.93c8.61,2.77,8.58,10,8.83,17.09a.94.94,0,0,0,0,.55L369.83,395a9,9,0,0,1-1.18.87c-1.22.63-2.47,1.21-3.72,1.81a23.14,23.14,0,0,1,1.68-3.51C370.23,389,369.89,386.07,365.05,382Z" transform="translate(-201.8 -276.13)"/><path class="f4ccfdf1-8955-449c-b3bd-db3104e4be46" d="M300,378l-2.08,2.09c-5.08.44-10.38.49-11.88,7l-3.93,0c-.53-4.82,1.54-7.5,6.42-8.15.87-.12,1.62-1.2,2.42-1.83L297,376Z" transform="translate(-201.8 -276.13)"/><path class="f0f038d4-788d-4583-a837-3202c75d72ff" d="M327,375.84l-19.1,2L302,376l6-.09Z" transform="translate(-201.8 -276.13)"/><path class="a173536d-20cc-4cac-98c1-f3b2f455c46d" d="M324,399.16l7-1.16c-5.74,3.17-7.11,9-8.61,14.62-.16.61,1,1.58,1.52,2.38l1,1.09c-4.61.84-2.92,4.22-2.81,7v1.74c-6-3.88-4.94-10-5-15.77Z" transform="translate(-201.8 -276.13)"/><path class="ab80c54f-ba6c-479a-884c-814a02e1140a" d="M322.07,424.79c0-.58,0-1.16,0-1.74a8.1,8.1,0,0,0,2.47-.08c1.48-.52,2.88-1.28,4.31-1.94l-4-4.94-1-1.09,3.11-1c2.24-1.82,8.48,2,7.05-5h.44l.44,0c.73,3.35,3.21,7.81-4,6.15a3.32,3.32,0,0,0-1.21,2.24c.8,6.48,1.62,6.91,8,4.56h1.44l.38,0,.38,0-2,4.91L336,428.1Z" transform="translate(-201.8 -276.13)"/><path class="f4ccfdf1-8955-449c-b3bd-db3104e4be46" d="M280.16,405.85l-2.61-11.79L280,395c2,3,3.44,6.75,6.14,8.89,6.14,4.85,13.67,3.57,20.88,3.15l0,1.51C297.7,411.57,288.84,409.56,280.16,405.85Z" transform="translate(-201.8 -276.13)"/><path class="be3a6163-b60c-46a4-907d-4503862b5fe1" d="M353.17,409.88c2.62,4.38,1.61,9.28-3,13.16A52.53,52.53,0,0,1,344,427l-3.82.52-1.16-.64c1.23-.64,2.5-1.22,3.69-1.93,3.75-2.27,8.47-3.56,9.18-8.95C352.32,413.93,352.74,411.9,353.17,409.88Z" transform="translate(-201.8 -276.13)"/><path class="f4ccfdf1-8955-449c-b3bd-db3104e4be46" d="M324,399.16,317.1,409l-1.16-1.22c0-1.37,0-2.74.05-4.11l1.68-.8.62.41-.41-.62.1-2.74,0,.05,1-2.51a.59.59,0,0,1,.49-.5l8.46-2.25Z" transform="translate(-201.8 -276.13)"/><path class="a173536d-20cc-4cac-98c1-f3b2f455c46d" d="M316,403.69c0,1.37,0,2.74-.05,4.11l-8.88.75c0-.5,0-1,0-1.51Z" transform="translate(-201.8 -276.13)"/><path class="f4c9a046-671f-4918-86a6-0e951e3600cb" d="M339,426.83l1.16.64-4.16.63,1.92-1.2Z" transform="translate(-201.8 -276.13)"/><path class="e56fd5ee-ef3e-468c-b8d1-e2c7e6f113ae" d="M316,403.69,307,407c-7.21.42-14.74,1.7-20.88-3.15C283.44,401.75,282,398,280,395a27.62,27.62,0,0,0-.05-4c-1.06-7,1-12.3,8.07-14.87l2.94.91c-.81.63-1.56,1.71-2.43,1.83-4.88.65-6.95,3.33-6.42,8.15-.23,12.32,2.75,16.45,12.88,17.94,8.27,1.06,16-.33,23-5.05l-.1,2.74-.22.21Z" transform="translate(-201.8 -276.13)"/><path class="f4ccfdf1-8955-449c-b3bd-db3104e4be46" d="M281.06,346.81l-17-.89q-2-6.92-4-13.83l4-2.09h11c0,.66,0,1.31.05,2-4.07,3.11-1,5.71.72,8.24C277.36,342.53,279.28,344.62,281.06,346.81Z" transform="translate(-201.8 -276.13)"/><path class="e56fd5ee-ef3e-468c-b8d1-e2c7e6f113ae" d="M275.06,332c0-.66,0-1.31-.05-2,15.69.32,31.39.68,47.09.9a88.24,88.24,0,0,0,8.85-.74l0,1.77c-7.74.33-15.48.89-23.23.94-7.57.05-15.15-.4-22.73-.64Z" transform="translate(-201.8 -276.13)"/><path class="a173536d-20cc-4cac-98c1-f3b2f455c46d" d="M285,332.22c7.58.24,15.16.69,22.73.64,7.75-.05,15.49-.61,23.23-.94l13-.9c-.23.94-1,2.13-.62,2.79,2.75,5.38,2.9,10-3.3,13.05-.15.07-.06.61-.08.94l-42,0c-1.61-1.4-3-3.54-4.87-4.07C287.13,342,283.51,339.05,285,332.22Z" transform="translate(-201.8 -276.13)"/><path class="bd1d5a03-86df-4f89-8c44-b80edad048cb" d="M340,347.8c0-.33-.07-.87.08-.94,6.2-3.09,6.05-7.67,3.3-13.05-.34-.66.39-1.85.62-2.79l7-1q-.5,8-1,16Z" transform="translate(-201.8 -276.13)"/><path class="f26cc889-5d42-4b98-acd5-1b70ed85592d" d="M318,399.94c-7,4.72-14.72,6.11-23,5.05,0-.95.05-1.9.07-2.85L306,401a20.12,20.12,0,0,0,3.78-1.09,14.12,14.12,0,0,0,2.64-2.28c-1.37-.38-2.79-1.14-4.1-1-.85.11-1.53,1.56-2.29,2.41l-12.95,0-1.1-1,0,.07c.28-11.25,5.55-16.42,18-17,5.42-.25,10.9.58,16.33.43,5.74-.16,11.46-1.26,17.2-1.3s11.49.72,17.24,1.18c1.47.12,2.93.42,4.4.63,4.84,4,5.18,6.94,1.56,12.13a23.14,23.14,0,0,0-1.68,3.51c1.25-.6,2.5-1.18,3.72-1.81a9.77,9.77,0,0,0,1.19-.87l1.11-1.32a.94.94,0,0,1,0-.55l2.82-.05c-.29,1-.57,1.94-.86,2.92-.3.63-.61,1.27-.92,1.9L371,400l0-.05L370,400l-15.67,2.94L350,395l-6.1-1.83L327,393.09,319.47,397a.59.59,0,0,0-.49.5L318,400Z" transform="translate(-201.8 -276.13)"/><path class="a173536d-20cc-4cac-98c1-f3b2f455c46d" d="M373.75,393.07l-2.82.05c-.25-7.09-.22-14.32-8.83-17.09l-3.43-.93h-6.36c-2.78.77-3.7-2.48-5.21-2.77-3.23-.61-6.75.28-10.15.55a7.89,7.89,0,0,1-.94.3l-9,2.67-19,.07c-1.09-4.93-2.48-9.81-3.18-14.79-.47-3.31,0-6.76.12-10.14l15,.08c-1,1.46-3.11,3.53-2.72,4.28,2.28,4.37,4.27,10.16,8.08,12.12,4,2.05,9.95.63,15,0,1.18-.15,3-3.29,2.81-4.82-.57-4.25-2.06-8.37-3.19-12.54L355,348.78c-.15,4.55-2.49,9.8,3.95,12.21l4,5c-3.1.52-9.53-3.21-10,4.91l7.12,2.39,1,.62C371.25,375.48,374.8,380.84,373.75,393.07Z" transform="translate(-201.8 -276.13)"/><path class="f28a4001-d167-4004-8b3e-f28aa51cf401" d="M353.17,409.88c-.43,2-.85,4.05-1.27,6.07-2.9,0-6.46,8-8.13.67L340,422l-.38,0-.38,0c-.18-.4-.36-.79-.53-1.19l-.91,1.18c-6.37,2.35-7.19,1.92-8-4.56a3.32,3.32,0,0,1,1.21-2.24c7.18,1.66,4.7-2.8,4-6.15.71.89,1.39,1.8,2.13,2.67.95,1.12,1.95,2.2,2.93,3.29,0,1,0,2,0,3l-.23.43L340,418c0-1,0-2,0-3-.58-2.49-.87-7-1.79-7.14-5.93-.85-3.51-4.67-3.37-7.73l2.23-2.74C345.08,398.14,350.65,402,353.17,409.88Z" transform="translate(-201.8 -276.13)"/><path class="f26cc889-5d42-4b98-acd5-1b70ed85592d" d="M337.06,397.39l-2.23,2.74L333,402c-5.83,1.46-8.14,6.17-5.93,12.06l-3.11,1c-.54-.8-1.68-1.77-1.52-2.38,1.5-5.65,2.87-11.45,8.61-14.62l1,.17,1.91-.34Z" transform="translate(-201.8 -276.13)"/><path class="a173536d-20cc-4cac-98c1-f3b2f455c46d" d="M354.28,402.92,370,400l1.08,0,0,.05,3.65.05c-.92.83-1.71,2.12-2.78,2.42a128.28,128.28,0,0,1-14.18,3.28C356.72,405.91,355.42,403.93,354.28,402.92Z" transform="translate(-201.8 -276.13)"/><path class="e56fd5ee-ef3e-468c-b8d1-e2c7e6f113ae" d="M343.94,393.16,350,395c-2.22,0-2.54,6-5.87,1.92C343.53,396.13,344,394.43,343.94,393.16Z" transform="translate(-201.8 -276.13)"/><path class="e56fd5ee-ef3e-468c-b8d1-e2c7e6f113ae" d="M319.47,397l7.54-3.89c.31.55.62,1.09.92,1.64Z" transform="translate(-201.8 -276.13)"/><path class="a173536d-20cc-4cac-98c1-f3b2f455c46d" d="M372,397.89c.31-.63.62-1.27.92-1.9C372.59,396.62,372.28,397.26,372,397.89Z" transform="translate(-201.8 -276.13)"/><path class="a173536d-20cc-4cac-98c1-f3b2f455c46d" d="M333.92,397.83l-1.91.34Z" transform="translate(-201.8 -276.13)"/><path class="bd1d5a03-86df-4f89-8c44-b80edad048cb" d="M361.06,373.93l-1-.62Z" transform="translate(-201.8 -276.13)"/><path class="fae9db48-ba07-4f6d-b759-34fe65724ba5" d="M260,332.09q2,6.92,4,13.83l-5,.08a11.74,11.74,0,0,0-2.27-.89C248,343.72,248,343.74,248,335Z" transform="translate(-201.8 -276.13)"/><path class="f4c9a046-671f-4918-86a6-0e951e3600cb" d="M247,329.05c.05-.41.09-.82.14-1.22l2.47,1L247,330.08C247,329.74,247,329.39,247,329.05Z" transform="translate(-201.8 -276.13)"/><path class="f0f038d4-788d-4583-a837-3202c75d72ff" d="M247,329.05c0,.34,0,.69,0,1l-.85,1C246.43,330.41,246.71,329.73,247,329.05Z" transform="translate(-201.8 -276.13)"/><path class="bd1d5a03-86df-4f89-8c44-b80edad048cb" d="M359,361c-6.44-2.41-4.1-7.66-3.95-12.21L361,346.9C364.67,352.21,360.59,356.43,359,361Z" transform="translate(-201.8 -276.13)"/><path class="a2f978be-c9ee-440a-9d52-726a3fa7dd43" d="M293.05,399,306,399l0,1.94-10.91,1.17c-6.12-.59-8.54-4.52-9.12-10.11v-2l.11-2.89c1.5-6.51,6.8-6.56,11.88-7a38.13,38.13,0,0,0-5.35,3.22c-1.74,1.47-4.52,3.55-4.34,5.07.39,3.34,2.37,6.49,3.69,9.72l0-.07Z" transform="translate(-201.8 -276.13)"/><path class="f26cc889-5d42-4b98-acd5-1b70ed85592d" d="M340,350.11c1.13,4.17,2.62,8.29,3.19,12.54.21,1.53-1.63,4.67-2.81,4.82-5,.62-11,2-15,0-3.81-2-5.8-7.75-8.08-12.12-.39-.75,1.75-2.82,2.72-4.28Z" transform="translate(-201.8 -276.13)"/><path class="bd1d5a03-86df-4f89-8c44-b80edad048cb" d="M285,332.22c-1.51,6.83,2.11,9.78,8.12,11.49,1.86.53,3.26,2.67,4.87,4.07l-16.95-1c-1.78-2.19-3.7-4.28-5.28-6.61-1.72-2.53-4.79-5.13-.72-8.24Z" transform="translate(-201.8 -276.13)"/><path class="bd1d5a03-86df-4f89-8c44-b80edad048cb" d="M337,372.87c3.4-.27,6.92-1.16,10.15-.55,1.51.29,2.43,3.54,5.21,2.77-4.26.32-8.52.82-12.79.85-1.17,0-2.35-1.34-3.52-2.06l3.05-.34Z" transform="translate(-201.8 -276.13)"/><path class="be3a6163-b60c-46a4-907d-4503862b5fe1" d="M337,372.87l2.1.67-3.05.34c0-.24,0-.48,0-.71A7.89,7.89,0,0,0,337,372.87Z" transform="translate(-201.8 -276.13)"/><path class="bd1d5a03-86df-4f89-8c44-b80edad048cb" d="M358.67,375.1l3.43.93Z" transform="translate(-201.8 -276.13)"/><path class="a173536d-20cc-4cac-98c1-f3b2f455c46d" d="M371,393.67,369.84,395Z" transform="translate(-201.8 -276.13)"/><path class="a173536d-20cc-4cac-98c1-f3b2f455c46d" d="M285.94,392c.58,5.59,3,9.52,9.12,10.11,0,.95,0,1.9-.07,2.85-10.13-1.49-13.11-5.62-12.88-17.94l3.93,0c0,1-.08,1.94-.11,2.9C285.93,390.66,285.93,391.34,285.94,392Z" transform="translate(-201.8 -276.13)"/><path class="f26cc889-5d42-4b98-acd5-1b70ed85592d" d="M324.89,416.09l4,4.94c-1.43.66-2.83,1.42-4.31,1.94a8.1,8.1,0,0,1-2.47.08C322,420.31,320.28,416.93,324.89,416.09Z" transform="translate(-201.8 -276.13)"/><path class="f28a4001-d167-4004-8b3e-f28aa51cf401" d="M327,414c-2.21-5.89.1-10.6,5.93-12.06q.57,3.53,1.12,7.05C335.5,416,329.26,412.19,327,414Z" transform="translate(-201.8 -276.13)"/><path class="a2f978be-c9ee-440a-9d52-726a3fa7dd43" d="M340,422l3.81-5.37c1.67,7.35,5.23-.68,8.13-.67-.71,5.39-5.43,6.68-9.18,8.95-1.19.71-2.46,1.29-3.69,1.93l-1.08.07Z" transform="translate(-201.8 -276.13)"/><path class="a2f978be-c9ee-440a-9d52-726a3fa7dd43" d="M334.07,409q-.56-3.53-1.12-7.05l1.88-1.82c-.14,3.06-2.56,6.88,3.37,7.73.92.14,1.21,4.65,1.79,7.14h0c-1-1.09-2-2.17-2.93-3.29-.74-.87-1.42-1.78-2.13-2.67l-.44,0Z" transform="translate(-201.8 -276.13)"/><path class="a2f978be-c9ee-440a-9d52-726a3fa7dd43" d="M337.76,422l.91-1.18c.17.4.35.79.53,1.19Z" transform="translate(-201.8 -276.13)"/><path class="e56fd5ee-ef3e-468c-b8d1-e2c7e6f113ae" d="M318,400l1-2.51Z" transform="translate(-201.8 -276.13)"/><path class="a173536d-20cc-4cac-98c1-f3b2f455c46d" d="M317.88,402.68l.41.62-.62-.41Z" transform="translate(-201.8 -276.13)"/><path class="ab80c54f-ba6c-479a-884c-814a02e1140a" d="M306,401l0-1.94c.76-.85,1.44-2.3,2.29-2.41,1.31-.16,2.73.6,4.1,1a14.12,14.12,0,0,1-2.64,2.28A20.12,20.12,0,0,1,306,401Z" transform="translate(-201.8 -276.13)"/><path class="a173536d-20cc-4cac-98c1-f3b2f455c46d" d="M293.05,399l-1.1-1Z" transform="translate(-201.8 -276.13)"/><path class="f4c9a046-671f-4918-86a6-0e951e3600cb" d="M371,400,370,400Z" transform="translate(-201.8 -276.13)"/><path class="a2f978be-c9ee-440a-9d52-726a3fa7dd43" d="M340,415c0,1,0,2,0,3h0c0-1,0-2,0-3Z" transform="translate(-201.8 -276.13)"/><path class="a2f978be-c9ee-440a-9d52-726a3fa7dd43" d="M340,418l-.23.43L340,418Z" transform="translate(-201.8 -276.13)"/><path class="f4ccfdf1-8955-449c-b3bd-db3104e4be46" d="M285.94,392c0-.69,0-1.37,0-2C285.93,390.66,285.93,391.34,285.94,392Z" transform="translate(-201.8 -276.13)"/></svg>